<?xml version="1.0" encoding="UTF-8"?>
<!DOCTYPE svg PUBLIC "-//W3C//DTD SVG 1.1//EN" "http://www.w3.org/Graphics/SVG/1.1/DTD/svg11.dtd">
<!-- Creator: CorelDRAW X6 -->
<svg xmlns="http://www.w3.org/2000/svg" xml:space="preserve" width="12in" height="12in" version="1.1" style="shape-rendering:geometricPrecision; text-rendering:geometricPrecision; image-rendering:optimizeQuality; fill-rule:evenodd; clip-rule:evenodd"
viewBox="0 0 12000 12000"
 xmlns:xlink="http://www.w3.org/1999/xlink">
 <defs>
  <style type="text/css">
   <![CDATA[
    .str0 {stroke:black;stroke-width:6.94488}
    .fil2 {fill:black}
    .fil0 {fill:#00CCFF}
    .fil1 {fill:black;fill-rule:nonzero}
   ]]>
  </style>
 </defs>
 <g id="Layer_x0020_1">
  <metadata id="CorelCorpID_0Corel-Layer"/>
  <g id="_351494888">
   <circle class="fil0" cx="6000" cy="6000" r="4180"/>
   <path class="fil1" d="M6405 5375c0,-905 -656,-1542 -1623,-1542 -962,0 -1623,637 -1623,1542 0,849 587,1467 1455,1536l-949 1380 1149 0 1336 -2029c162,-244 256,-549 256,-887zm-2248 0c0,-381 293,-606 624,-606 337,0 624,219 624,606 0,387 -287,606 -624,606 -331,0 -624,-225 -624,-606z"/>
   <path class="fil2 str0" d="M7734 4476l1145 684 -1428 2392 -1145 -684 1428 -2392zm206 417l0 0c30,18 40,57 22,86l-1154 1932c-18,30 -57,40 -86,22l0 0c-30,-18 -40,-57 -22,-86l1154 -1932c18,-30 57,-40 86,-22z"/>
   <path class="fil2" d="M6305 6868l1145 684 -433 725 -793 27 -352 -711 433 -725zm170 355l581 347 -220 368 -402 14 -179 -361 220 -368zm529 816l-53 88 -521 15 573 -104zm-740 2l-234 -452 53 -88 181 540z"/>
   <path class="fil2" d="M7809 4349l1145 684 236 -394c88,-147 39,-339 -108,-427l-611 -365c-147,-88 -339,-39 -427,108l-236 394z"/>
  </g>
 </g>
</svg>
